<svg width="255" height="69" viewBox="0 0 255 69" fill="none" xmlns="http://www.w3.org/2000/svg">
<g filter="url(#filter0_b_2_355)">
<path d="M252.274 4.62108C252.274 3.40002 251.284 2.41016 250.063 2.41016H44.8691C44.5416 2.41016 44.2182 2.4829 43.9223 2.62314L3.70457 21.6819C2.93259 22.0477 2.44044 22.8255 2.44044 23.6798V64.3159C2.44044 65.5369 3.43031 66.5268 4.65136 66.5268H217.311C217.647 66.5268 217.979 66.4501 218.281 66.3024L251.034 50.3035C251.793 49.9327 252.274 49.1617 252.274 48.3169V4.62108Z" fill="url(#paint0_linear_2_355)"/>
<path d="M44.8691 1.3047H250.063C251.895 1.3047 253.38 2.78949 253.38 4.62108V48.3169C253.38 49.5841 252.658 50.7406 251.519 51.2968L218.767 67.2957C218.313 67.5172 217.816 67.6323 217.311 67.6323H4.65137C2.81978 67.6323 1.33499 66.1475 1.33499 64.3159V23.6798C1.33499 22.3984 2.07321 21.2317 3.23117 20.6829L43.4489 1.62418C43.8928 1.41382 44.3779 1.3047 44.8691 1.3047Z" stroke="url(#paint1_linear_2_355)" stroke-width="2.21092"/>
</g>
<path d="M71.0275 42.3081V27.9814H84.2201V30.6278H73.674V33.8115H82.1506V36.4779H73.674V39.6616H84.2201V42.3081H71.0275ZM86.0233 42.3081V41.6117L90.2617 36.4381L86.0233 31.4636V30.7671H88.8489L91.953 34.4284L95.0572 30.7671H97.8827V31.4636L93.6444 36.4381L97.8827 41.6117V42.3081H95.0771L91.953 38.4876L88.8489 42.3081H86.0233ZM99.9597 46.8847V30.7671H108.934C109.438 30.7671 109.896 30.8931 110.307 31.1452C110.731 31.3972 111.063 31.7289 111.302 32.1401C111.554 32.5513 111.68 33.009 111.68 33.5131V39.5621C111.68 40.0662 111.554 40.5239 111.302 40.9351C111.063 41.3464 110.731 41.678 110.307 41.93C109.896 42.1821 109.438 42.3081 108.934 42.3081H102.566V46.8847H99.9597ZM102.805 39.7014H108.834C108.901 39.7014 108.954 39.6815 108.994 39.6417C109.047 39.5887 109.073 39.529 109.073 39.4627V33.6126C109.073 33.5462 109.047 33.4932 108.994 33.4534C108.954 33.4003 108.901 33.3738 108.834 33.3738H102.805C102.739 33.3738 102.679 33.4003 102.626 33.4534C102.586 33.4932 102.566 33.5462 102.566 33.6126V39.4627C102.566 39.529 102.586 39.5887 102.626 39.6417C102.679 39.6815 102.739 39.7014 102.805 39.7014ZM115.88 42.3081C115.376 42.3081 114.918 42.1821 114.507 41.93C114.095 41.678 113.764 41.3464 113.512 40.9351C113.26 40.5239 113.134 40.0662 113.134 39.5621V26.9665H115.76V39.4627C115.76 39.529 115.78 39.5887 115.82 39.6417C115.873 39.6815 115.933 39.7014 115.999 39.7014H118.208V42.3081H115.88ZM122.428 42.3081C121.924 42.3081 121.466 42.1821 121.055 41.93C120.643 41.678 120.312 41.3464 120.06 40.9351C119.808 40.5239 119.682 40.0662 119.682 39.5621V33.5131C119.682 33.009 119.808 32.5513 120.06 32.1401C120.312 31.7289 120.643 31.3972 121.055 31.1452C121.466 30.8931 121.924 30.7671 122.428 30.7671H128.656C129.16 30.7671 129.618 30.8931 130.029 31.1452C130.453 31.3972 130.785 31.7289 131.024 32.1401C131.276 32.5513 131.402 33.009 131.402 33.5131V39.5621C131.402 40.0662 131.276 40.5239 131.024 40.9351C130.785 41.3464 130.46 41.678 130.049 41.93C129.637 42.1821 129.173 42.3081 128.656 42.3081H122.428ZM122.527 39.7014H128.556C128.623 39.7014 128.676 39.6815 128.716 39.6417C128.769 39.5887 128.795 39.529 128.795 39.4627V33.6126C128.795 33.5462 128.769 33.4932 128.716 33.4534C128.676 33.4003 128.623 33.3738 128.556 33.3738H122.527C122.461 33.3738 122.401 33.4003 122.348 33.4534C122.308 33.4932 122.288 33.5462 122.288 33.6126V39.4627C122.288 39.529 122.308 39.5887 122.348 39.6417C122.401 39.6815 122.461 39.7014 122.527 39.7014ZM133.051 42.3081V33.5131C133.051 33.009 133.177 32.5513 133.429 32.1401C133.681 31.7289 134.013 31.3972 134.424 31.1452C134.849 30.8931 135.306 30.7671 135.797 30.7671H142.205V33.3738H135.897C135.83 33.3738 135.771 33.4003 135.718 33.4534C135.678 33.4932 135.658 33.5462 135.658 33.6126V42.3081H133.051ZM146.309 42.3081C145.805 42.3081 145.348 42.1821 144.937 41.93C144.525 41.678 144.194 41.3464 143.942 40.9351C143.69 40.5239 143.564 40.0662 143.564 39.5621V33.5131C143.564 33.009 143.69 32.5513 143.942 32.1401C144.194 31.7289 144.525 31.3972 144.937 31.1452C145.348 30.8931 145.805 30.7671 146.309 30.7671H152.538C153.042 30.7671 153.499 30.8931 153.911 31.1452C154.335 31.3972 154.667 31.7289 154.906 32.1401C155.158 32.5513 155.284 33.009 155.284 33.5131V37.8509H146.17V39.4627C146.17 39.529 146.19 39.5887 146.23 39.6417C146.283 39.6815 146.343 39.7014 146.409 39.7014H155.284V42.3081H146.309ZM146.17 35.5029H152.677V33.6126C152.677 33.5462 152.65 33.4932 152.597 33.4534C152.558 33.4003 152.504 33.3738 152.438 33.3738H146.409C146.343 33.3738 146.283 33.4003 146.23 33.4534C146.19 33.4932 146.17 33.5462 146.17 33.6126V35.5029Z" fill="white"/>
<path d="M211.372 41.101L216.9 35.5737L211.372 30.0464L212.478 27.8354L220.216 35.5737L212.478 43.3119L211.372 41.101Z" fill="white"/>
<line x1="216.9" y1="35.5737" x2="168.259" y2="35.5737" stroke="white" stroke-width="2.21092"/>
<defs>
<filter id="filter0_b_2_355" x="-212.019" y="-212.049" width="678.752" height="493.035" filterUnits="userSpaceOnUse" color-interpolation-filters="sRGB">
<feFlood flood-opacity="0" result="BackgroundImageFix"/>
<feGaussianBlur in="BackgroundImage" stdDeviation="106.124"/>
<feComposite in2="SourceAlpha" operator="in" result="effect1_backgroundBlur_2_355"/>
<feBlend mode="normal" in="SourceGraphic" in2="effect1_backgroundBlur_2_355" result="shape"/>
</filter>
<linearGradient id="paint0_linear_2_355" x1="252.274" y1="2.41016" x2="-44.6856" y2="47.4342" gradientUnits="userSpaceOnUse">
<stop offset="0.183111" stop-color="#FF56F6"/>
<stop offset="0.432593" stop-color="#B936EE"/>
<stop offset="0.854443" stop-color="#3BACE2"/>
<stop offset="1" stop-color="#406AFF"/>
</linearGradient>
<linearGradient id="paint1_linear_2_355" x1="-1.93408" y1="66.5268" x2="260.88" y2="21.3818" gradientUnits="userSpaceOnUse">
<stop offset="0.473958" stop-color="#FFA6FA"/>
<stop offset="0.96875" stop-color="#3C79D5"/>
</linearGradient>
</defs>
</svg>
